<?xml version="1.0" encoding="UTF-8" standalone="no"?>
<svg
   xmlns:dc="http://purl.org/dc/elements/1.1/"
   xmlns:cc="http://creativecommons.org/ns#"
   xmlns:rdf="http://www.w3.org/1999/02/22-rdf-syntax-ns#"
   xmlns:svg="http://www.w3.org/2000/svg"
   xmlns="http://www.w3.org/2000/svg"
   xmlns:sodipodi="http://sodipodi.sourceforge.net/DTD/sodipodi-0.dtd"
   xmlns:inkscape="http://www.inkscape.org/namespaces/inkscape"
   version="1.1"
   id="svg10"
   width="192"
   height="192"
   viewBox="0 0 192 192"
   sodipodi:docname="main-logo.svg"
   inkscape:version="1.0.2-2 (e86c870879, 2021-01-15)">
  <title
     id="title931">Gractwo Main Logo</title>
  <metadata
     id="metadata16">
    <rdf:RDF>
      <cc:Work
         rdf:about="">
        <dc:format>image/svg+xml</dc:format>
        <dc:type
           rdf:resource="http://purl.org/dc/dcmitype/StillImage" />
        <dc:title>Gractwo Main Logo</dc:title>
      </cc:Work>
    </rdf:RDF>
  </metadata>
  <defs
     id="defs14" />
  <sodipodi:namedview
     pagecolor="#ffffff"
     bordercolor="#666666"
     borderopacity="1"
     objecttolerance="10"
     gridtolerance="10"
     guidetolerance="10"
     inkscape:pageopacity="0"
     inkscape:pageshadow="2"
     inkscape:window-width="1920"
     inkscape:window-height="1017"
     id="namedview12"
     showgrid="false"
     inkscape:zoom="3.1304206"
     inkscape:cx="90.847995"
     inkscape:cy="116.23609"
     inkscape:window-x="-8"
     inkscape:window-y="105"
     inkscape:window-maximized="1"
     inkscape:current-layer="g18" />
  <g
     inkscape:groupmode="layer"
     inkscape:label="Image"
     id="g18">
    <path
       style="fill:none;stroke:#fb636b;stroke-width:1px;stroke-linecap:butt;stroke-linejoin:miter;stroke-opacity:1;fill-opacity:1"
       d="m 95.51432,52.868294 7.02781,31.305697 -9.583377,33.062649 -23.798718,5.75003 -22.520935,22.36121 -11.659775,4.1528 -12.618113,-5.43058 -1.756952,-27.7918 18.208415,-60.055824 4.31252,-5.270857 16.611186,0.159723 2.395844,2.875013 22.201489,0.319446 3.034736,-1.916676 z"
       id="path22" />
    <path
       style="fill:none;stroke:#fb636b;stroke-width:1px;stroke-linecap:butt;stroke-linejoin:miter;stroke-opacity:1;fill-opacity:1"
       d="m 74.910061,80.979532 11.97922,-0.958337 6.229195,7.986147 -6.388918,24.118168 -22.680658,5.90975 -21.562597,22.36121 -7.187532,2.23612 -7.187533,-2.23612 -0.479169,-25.23623 8.784762,-26.034837 10.701437,7.027809 8.625039,1.437507 8.625039,-1.59723 6.229195,-5.909749 z"
       id="path24" />
    <path
       style="fill:none;stroke:#61f2ea;stroke-width:1px;stroke-linecap:butt;stroke-linejoin:miter;stroke-opacity:1"
       d="m 107.81299,56.541922 -4.31252,7.986147 3.19446,28.430684 -9.902826,24.437607 7.347256,5.75003 34.50016,-1.91668 15.01395,13.73618 8.14587,3.67363 10.06255,-3.03474 5.11113,-15.49313 -1.75695,-23.798715 -5.5903,-12.45839 -0.6389,-14.854233 -15.3334,-20.444537 H 141.9937 l -9.90283,6.708363 z"
       id="path26" />
    <path
       style="fill:none;stroke:#61f2ea;stroke-width:1px;stroke-linecap:butt;stroke-linejoin:miter;stroke-opacity:1"
       d="m 123.14639,84.972606 16.61119,-0.958338 5.5903,4.472243 7.18753,3.993073 5.27086,0.319446 5.11113,-1.597229 3.99308,5.590303 2.55556,22.840376 -3.5139,11.02089 -3.99308,1.75695 -3.99307,-1.75695 -16.13202,-15.81257 -30.18763,1.11806 2.55556,-22.361215 z"
       id="path28" />
    <path
       style="fill:#3a2428;stroke:#cd5267;stroke-width:1.19792;stroke-linecap:round;stroke-linejoin:round"
       d=""
       id="path48" />
    <path
       style="fill:#fb636b;stroke:#fb636b;stroke-width:0.513;fill-opacity:1;stroke-opacity:1;stroke-miterlimit:4;stroke-dasharray:none"
       d="m 28.951127,146.29811 -5.985882,-2.58317 -0.07888,-0.54246 c -0.04339,-0.29836 -0.446251,-6.46341 -0.895255,-13.70011 l -0.816371,-13.15765 9.002028,-29.703528 c 4.951116,-16.336941 9.048722,-29.814413 9.105792,-29.949938 0.05707,-0.135525 1.002111,-1.342584 2.100091,-2.682353 l 1.996327,-2.435944 h 3.129899 c 1.721444,0 5.345213,0.03363 8.052819,0.07474 l 4.922922,0.07474 1.15034,1.390701 c 0.943103,1.140159 1.214239,1.400236 1.505023,1.443629 0.195074,0.02911 5.317635,0.114093 11.38347,0.188849 l 11.028789,0.13592 1.442621,-0.920171 c 1.260241,-0.803842 1.507956,-0.920483 1.959445,-0.922644 0.449153,-0.0021 7.035025,0.358182 7.086744,0.387735 0.01063,0.0061 1.572211,6.928755 3.470175,15.383733 l 3.450846,15.372688 -4.726787,16.306803 -4.726786,16.30681 -11.834553,2.86057 -11.834551,2.86058 -11.262529,11.18869 -11.262529,11.18869 -5.462779,1.94406 c -3.004527,1.06923 -5.564425,1.97289 -5.68866,2.00813 -0.147623,0.0419 -2.29975,-0.83089 -6.211765,-2.5191 z m 10.263148,-4.28794 c 3.61131,-1.11927 3.630772,-1.12696 4.080381,-1.61413 0.248471,-0.26923 5.08559,-5.29294 10.749155,-11.16381 8.707518,-9.02625 10.364093,-10.69362 10.729412,-10.79939 0.237611,-0.0688 5.361904,-1.40644 11.387316,-2.97254 6.025412,-1.5661 10.974423,-2.86378 10.997803,-2.88373 0.02338,-0.02 1.51059,-5.56538 3.304914,-12.32318 2.722408,-10.253166 3.240525,-12.324292 3.13022,-12.512786 -0.0727,-0.124235 -1.552858,-2.046264 -3.289234,-4.271174 l -3.157049,-4.045293 -0.693326,0.06978 c -0.38133,0.03838 -3.204618,0.268593 -6.273972,0.511582 -3.069354,0.242991 -5.616264,0.481852 -5.659802,0.530805 -0.04354,0.04895 -1.053722,2.147356 -2.244857,4.66312 l -2.165698,4.574118 -2.38322,2.258824 c -1.310771,1.242353 -2.677898,2.527049 -3.03806,2.854882 l -0.654841,0.596057 -4.128858,0.769245 -4.128858,0.769245 -4.21529,-0.703776 -4.215291,-0.703777 -5.547369,-3.637327 c -3.051053,-2.000529 -5.582201,-3.64504 -5.624774,-3.654467 -0.04257,-0.0094 -2.104472,5.980035 -4.581998,13.309922 l -4.504592,13.32706 0.238687,12.93176 c 0.131278,7.11247 0.245903,12.9352 0.254723,12.93939 0.374567,0.17807 7.745277,2.38823 7.850948,2.35416 0.0852,-0.0275 1.78779,-0.55603 3.78353,-1.17457 z"
       id="path879" />
    <path
       style="fill:#61f2ea;stroke:#61f2ea;stroke-width:0.36;fill-opacity:1;stroke-opacity:1;stroke-miterlimit:4;stroke-dasharray:none"
       d="m 157.91958,136.23525 -3.92935,-1.77102 -7.53627,-6.90134 c -5.20162,-4.76338 -7.64554,-6.90075 -7.889,-6.89945 -0.19401,9.6e-4 -7.96355,0.42912 -17.26565,0.95131 l -16.91292,0.94943 -3.42066,-2.66587 c -2.30994,-1.80024 -3.398138,-2.74447 -3.351305,-2.90792 0.03814,-0.13313 2.231585,-5.56992 4.874315,-12.08175 l 4.80496,-11.839712 -1.59529,-14.202473 -1.59529,-14.202472 2.02327,-3.74615 c 1.1128,-2.060382 2.03411,-3.761169 2.04735,-3.779527 0.0132,-0.01836 5.44969,-0.319475 12.08099,-0.669152 l 12.05692,-0.635775 4.97386,-3.363852 4.97387,-3.363852 h 5.52288 5.52288 l 7.56729,10.102476 7.56729,10.102476 0.3025,7.349559 0.30249,7.349558 2.81754,6.306753 2.81754,6.306754 0.81701,11.260469 c 0.44936,6.19326 0.81353,11.51203 0.80927,11.8195 -0.004,0.30746 -1.10667,3.90123 -2.44981,7.98614 l -2.44206,7.42712 -4.78263,1.4449 -4.78264,1.44489 z m 6.35164,-4.18282 c 1.12873,-0.49928 2.0779,-0.92624 2.10926,-0.9488 0.0314,-0.0226 0.87185,-2.59226 1.86775,-5.71044 l 1.81072,-5.66942 -1.26878,-11.37148 c -0.69783,-6.25431 -1.26879,-11.452075 -1.26879,-11.550581 0,-0.0985 -0.97593,-1.544586 -2.16874,-3.213515 -1.54611,-2.163267 -2.24516,-3.018363 -2.43496,-2.9785 -0.14642,0.03075 -1.38189,0.405569 -2.74548,0.832924 l -2.47926,0.777005 -2.47297,-0.161326 -2.47296,-0.161328 -3.5139,-1.940937 c -3.09343,-1.708681 -3.85531,-2.214305 -6.36697,-4.225431 -1.56919,-1.256472 -2.98491,-2.284493 -3.14604,-2.284493 -0.16113,0 -4.01048,0.218188 -8.55409,0.484861 l -8.26113,0.48486 -2.24915,2.146659 c -1.23703,1.180662 -3.31847,3.172784 -4.62542,4.426938 l -2.37626,2.280282 -1.32371,11.579592 c -0.72804,6.36878 -1.29537,11.60806 -1.26072,11.64286 0.0658,0.0661 27.20923,-0.88394 29.29886,-1.02546 l 1.19792,-0.0811 8.04596,7.89504 8.04595,7.89504 2.0166,0.88644 c 1.10912,0.48754 2.13527,0.88907 2.28032,0.89228 0.14506,0.003 1.18725,-0.40265 2.31599,-0.90194 z"
       id="path929" />
  </g>
</svg>
